<svg version="1.2" xmlns="http://www.w3.org/2000/svg" viewBox="0 0 1500 1000" width="1500" height="1000">
	<title>13186366_5125963-ai</title>
	<defs>
		<linearGradient id="g1" x1="-63" y1="802.2" x2="873" y2="-763.1" gradientUnits="userSpaceOnUse">
			<stop offset="0" stop-color="#142336"/>
			<stop offset=".4" stop-color="#064f4f"/>
			<stop offset="1" stop-color="#00a4a4"/>
		</linearGradient>
		<radialGradient id="g2" cx="1165.8" cy="264.8" r="1709.5" gradientUnits="userSpaceOnUse">
			<stop offset="0" stop-color="#00a4a4"/>
			<stop offset="1" stop-color="#00a4a4" stop-opacity="0"/>
		</radialGradient>
		<linearGradient id="g3" x1="1553.2" y1="599" x2="1553.2" y2="599" gradientUnits="userSpaceOnUse">
			<stop offset="0" stop-color="#ffffff"/>
			<stop offset="1" stop-color="#ffffff"/>
		</linearGradient>
		<linearGradient id="g4" x1="660.8" y1="1241.2" x2="458.2" y2="449.5" gradientUnits="userSpaceOnUse">
			<stop offset="0" stop-color="#00a4a4"/>
			<stop offset="1" stop-color="#00a4a4" stop-opacity="0"/>
		</linearGradient>
		<linearGradient id="g5" x1="708.7" y1="995.2" x2="514.3" y2="285.7" gradientUnits="userSpaceOnUse">
			<stop offset="0" stop-color="#00a4a4"/>
			<stop offset="1" stop-color="#00a4a4" stop-opacity="0"/>
		</linearGradient>
		<linearGradient id="g6" x1="1688.6" y1="699.9" x2="-25.8" y2="1015.1" gradientUnits="userSpaceOnUse">
			<stop offset="0" stop-color="#00a4a4"/>
			<stop offset=".4" stop-color="#00a4a4" stop-opacity="0"/>
			<stop offset=".7" stop-color="#00a4a4" stop-opacity="0"/>
			<stop offset="1" stop-color="#00a4a4" stop-opacity=".8"/>
		</linearGradient>
		<linearGradient id="g7" x1="1415.3" y1="-37.4" x2="774" y2="526.7" gradientUnits="userSpaceOnUse">
			<stop offset="0" stop-color="#00a4a4"/>
			<stop offset="1" stop-color="#00a4a4" stop-opacity="0"/>
		</linearGradient>
		<linearGradient id="g8" x1="875.7" y1="773.7" x2="389.8" y2="84.8" gradientUnits="userSpaceOnUse">
			<stop offset="0" stop-color="#00a4a4"/>
			<stop offset="1" stop-color="#00a4a4" stop-opacity="0"/>
		</linearGradient>
		<linearGradient id="g9" x1="1082.7" y1="-95.4" x2="367.5" y2="533.6" gradientUnits="userSpaceOnUse">
			<stop offset="0" stop-color="#00a4a4"/>
			<stop offset="1" stop-color="#00a4a4" stop-opacity="0"/>
		</linearGradient>
		<linearGradient id="g10" x1="1199.8" y1="24.6" x2="1199.8" y2="24.6" gradientUnits="userSpaceOnUse">
			<stop offset="0" stop-color="#ffffff"/>
			<stop offset="1" stop-color="#ffffff"/>
		</linearGradient>
		<linearGradient id="g11" x1="553.4" y1="-86.6" x2="553.4" y2="-86.6" gradientUnits="userSpaceOnUse">
			<stop offset="0" stop-color="#ffffff"/>
			<stop offset="1" stop-color="#ffffff"/>
		</linearGradient>
		<linearGradient id="g12" x1="1636.2" y1="815.1" x2="580.4" y2="979.2" gradientUnits="userSpaceOnUse">
			<stop offset="0" stop-color="#00a4a4"/>
			<stop offset=".1" stop-color="#00a4a4" stop-opacity=".8"/>
			<stop offset="1" stop-color="#00a4a4" stop-opacity="0"/>
		</linearGradient>
		<radialGradient id="g13" cx="1457.8" cy="1146.3" r="2449.1" gradientUnits="userSpaceOnUse">
			<stop offset="0" stop-color="#00ab9a"/>
			<stop offset="1" stop-color="#00ab9a" stop-opacity="0"/>
		</radialGradient>
		<linearGradient id="g14" x1="-128.6" y1="1069.5" x2="403.6" y2="25.7" gradientUnits="userSpaceOnUse">
			<stop offset="0" stop-color="#00ab9a"/>
			<stop offset="1" stop-color="#00ab9a" stop-opacity="0"/>
		</linearGradient>
		<radialGradient id="g15" cx="68" cy="-108.6" r="1752.3" gradientUnits="userSpaceOnUse">
			<stop offset="0" stop-color="#00ab9a"/>
			<stop offset="1" stop-color="#00ab9a" stop-opacity="0"/>
		</radialGradient>
		<radialGradient id="g16" cx="1178.7" cy="996.4" r="1510.4" gradientUnits="userSpaceOnUse">
			<stop offset="0" stop-color="#00ab9a"/>
			<stop offset="1" stop-color="#00ab9a" stop-opacity="0"/>
		</radialGradient>
	</defs>
	<style>
		.s0 { fill: url(#g1) } 
		.s1 { fill: url(#g2) } 
		.s2 { opacity: .5;fill: none;stroke: #000000 } 
		.s3 { fill: none;stroke: #000000;stroke-width: 1.1 } 
		.s4 { fill: none;stroke: #000000;stroke-width: 1.2 } 
		.s5 { fill: none;stroke: #000000;stroke-width: 1.3 } 
		.s6 { fill: none;stroke: #000000;stroke-width: 1.4 } 
		.s7 { fill: none;stroke: #000000;stroke-width: 1.5 } 
		.s8 { fill: none;stroke: #000000;stroke-width: 1.6 } 
		.s9 { fill: none;stroke: #000000;stroke-width: 1.7 } 
		.s10 { fill: none;stroke: #000000;stroke-width: 1.8 } 
		.s11 { fill: none;stroke: #000000;stroke-width: 1.9 } 
		.s12 { fill: url(#g3) } 
		.s13 { mix-blend-mode: multiply;fill: url(#g4) } 
		.s14 { opacity: .5;mix-blend-mode: multiply;fill: url(#g5) } 
		.s15 { fill: url(#g6) } 
		.s16 { mix-blend-mode: multiply;fill: url(#g7) } 
		.s17 { opacity: .3;fill: url(#g8) } 
		.s18 { mix-blend-mode: multiply;fill: url(#g9) } 
		.s19 { opacity: .5;fill: none;stroke: #000000;stroke-width: 2 } 
		.s20 { opacity: .5;fill: none;stroke: #000000;stroke-width: 1.8 } 
		.s21 { opacity: .4;fill: none;stroke: #000000;stroke-width: 1.6 } 
		.s22 { opacity: .3;fill: none;stroke: #000000;stroke-width: 1.4 } 
		.s23 { opacity: .3;fill: none;stroke: #000000;stroke-width: 1.3 } 
		.s24 { opacity: .3;fill: none;stroke: #000000;stroke-width: 1.1 } 
		.s25 { opacity: .2;fill: none;stroke: #000000;stroke-width: .9 } 
		.s26 { opacity: .1;fill: none;stroke: #000000;stroke-width: .7 } 
		.s27 { opacity: .1;fill: none;stroke: #000000;stroke-width: .5 } 
		.s28 { fill: url(#g10) } 
		.s29 { opacity: .7;fill: none;stroke: #000000;stroke-width: 2 } 
		.s30 { opacity: .7;fill: none;stroke: #000000;stroke-width: 1.9 } 
		.s31 { opacity: .6;fill: none;stroke: #000000;stroke-width: 1.8 } 
		.s32 { opacity: .6;fill: none;stroke: #000000;stroke-width: 1.7 } 
		.s33 { opacity: .6;fill: none;stroke: #000000;stroke-width: 1.6 } 
		.s34 { opacity: .5;fill: none;stroke: #000000;stroke-width: 1.5 } 
		.s35 { opacity: .5;fill: none;stroke: #000000;stroke-width: 1.4 } 
		.s36 { opacity: .5;fill: none;stroke: #000000;stroke-width: 1.3 } 
		.s37 { opacity: .4;fill: none;stroke: #000000;stroke-width: 1.2 } 
		.s38 { opacity: .4;fill: none;stroke: #000000;stroke-width: 1.1 } 
		.s39 { opacity: .4;fill: none;stroke: #000000 } 
		.s40 { opacity: .3;fill: none;stroke: #000000;stroke-width: .9 } 
		.s41 { opacity: .3;fill: none;stroke: #000000;stroke-width: .8 } 
		.s42 { opacity: .3;fill: none;stroke: #000000;stroke-width: .7 } 
		.s43 { opacity: .2;fill: none;stroke: #000000;stroke-width: .6 } 
		.s44 { opacity: .2;fill: none;stroke: #000000;stroke-width: .5 } 
		.s45 { opacity: .7;fill: none;stroke: #000000 } 
		.s46 { fill: none;stroke: #000000;stroke-width: 1 } 
		.s47 { fill: none;stroke: #000000;stroke-width: .9 } 
		.s48 { fill: none;stroke: #000000;stroke-width: .8 } 
		.s49 { fill: none;stroke: #000000;stroke-width: .7 } 
		.s50 { fill: none;stroke: #000000;stroke-width: .6 } 
		.s51 { fill: none;stroke: #000000;stroke-width: .5 } 
		.s52 { fill: url(#g11) } 
		.s53 { fill: url(#g12) } 
		.s54 { mix-blend-mode: screen;fill: url(#g13) } 
		.s55 { fill: url(#g14) } 
		.s56 { mix-blend-mode: multiply;fill: url(#g15) } 
		.s57 { fill: none;stroke: #000000;stroke-width: 2 } 
		.s58 { opacity: .6;fill: none;stroke: #000000 } 
		.s59 { mix-blend-mode: screen;fill: url(#g16) } 
	</style>
	<g id="BACKGROUND">
		<g id="&lt;Group&gt;">
			<g id="&lt;Clip Group&gt;">
				<path id="&lt;Path&gt;" class="s0" d="m0 0h1500v1000h-1500z"/>
				<path id="&lt;Path&gt;" class="s1" d="m1592.4 1072.8h-1768v-613.4c579.6-145.7 757.4 210.7 1210.7 69.4 372.3-116.1 557.3-578.7 557.3-578.7z"/>
				<g id="&lt;Group&gt;">
					<path id="&lt;Path&gt;" class="s2" d="m1374.1-160.4c0 0 38.2 625.6-432.9 718.5-321.4 63.4-573.4-180.4-949.7-123.9"/>
					<g id="&lt;Group&gt;" style="opacity: .5">
						<path id="&lt;Path&gt;" class="s3" d="m1385.2-113c-0.4 0.2 15.3 598.1-455.9 679.1-316.9 54.5-569.5-185.5-937.5-128.8"/>
					</g>
					<g id="&lt;Group&gt;" style="opacity: .5">
						<path id="&lt;Path&gt;" class="s3" d="m1396.4-65.6c-0.8 0.5-7.5 570.6-478.9 639.7-312.4 45.8-565.8-190.6-925.5-133.8"/>
					</g>
					<g id="&lt;Group&gt;" style="opacity: .6">
						<path id="&lt;Path&gt;" class="s4" d="m1407.6-18.2c-1.2 0.7-30.3 543.4-502 600.3-307.8 37.2-561.9-195.7-913.3-138.8"/>
					</g>
					<g id="&lt;Group&gt;" style="opacity: .6">
						<path id="&lt;Path&gt;" class="s5" d="m1418.7 29.2c-1.5 1-52.9 516.2-524.9 560.9-303.2 28.8-558.2-200.7-901.3-143.8"/>
					</g>
					<g id="&lt;Group&gt;" style="opacity: .6">
						<path id="&lt;Path&gt;" class="s5" d="m1429.9 76.6c-1.9 1.2-75.5 489.3-548 521.6-298.5 20.3-554.3-205.9-889.2-148.9"/>
					</g>
					<g id="&lt;Group&gt;" style="opacity: .6">
						<path id="&lt;Path&gt;" class="s6" d="m1441.1 124c-2.4 1.5-98.1 462.6-571 482.2-293.8 12.1-550.6-211-877.1-153.9"/>
					</g>
					<g id="&lt;Group&gt;" style="opacity: .6">
						<path id="&lt;Path&gt;" class="s6" d="m1452.2 171.4c-2.7 1.7-120.5 436-594 442.8-289 4.1-546.8-216.1-865-158.9"/>
					</g>
					<g id="&lt;Group&gt;" style="opacity: .7">
						<path id="&lt;Path&gt;" class="s7" d="m1463.4 218.9c-3.1 1.8-143 409.6-617.1 403.3-284.2-3.8-542.9-221.2-852.8-163.9"/>
					</g>
					<g id="&lt;Group&gt;" style="opacity: .7">
						<path id="&lt;Path&gt;" class="s8" d="m1474.6 266.3c-3.5 2.1-165.5 383.5-640.1 363.9-279.5-11.6-539.2-226.2-840.8-168.9"/>
					</g>
					<g id="&lt;Group&gt;" style="opacity: .7">
						<path id="&lt;Path&gt;" class="s8" d="m1485.7 313.7c-3.8 2.3-187.9 357.7-663.1 324.5-274.7-19.2-535.3-231.3-828.7-173.9"/>
					</g>
					<g id="&lt;Group&gt;" style="opacity: .7">
						<path id="&lt;Path&gt;" class="s9" d="m1496.9 361.1c-4.3 2.6-210.5 332.1-686.1 285.1-270-26.7-531.6-236.4-816.6-178.9"/>
					</g>
					<g id="&lt;Group&gt;" style="opacity: .7">
						<path id="&lt;Path&gt;" class="s10" d="m1508.1 408.5c-4.7 2.8-233.1 306.8-709.2 245.7-265.3-34-527.7-241.5-804.5-183.9"/>
					</g>
					<g id="&lt;Group&gt;" style="opacity: .7">
						<path id="&lt;Path&gt;" class="s10" d="m1519.2 455.9c-5 3.1-255.7 281.8-732.1 206.3-260.7-41.3-524-246.6-792.4-188.9"/>
					</g>
					<g id="&lt;Group&gt;" style="opacity: .8">
						<path id="&lt;Path&gt;" class="s11" d="m1530.4 503.3c-5.4 3.3-278.5 257-755.2 166.9-256.1-48.3-520.1-251.6-780.3-193.9"/>
					</g>
					<g id="&lt;Group&gt;" style="opacity: .8">
						<path id="&lt;Path&gt;" class="s11" d="m1541.6 550.7c-5.8 3.5-301.5 232.5-778.2 127.5-251.6-55.3-516.4-256.7-768.3-198.9"/>
					</g>
					<g id="&lt;Group&gt;" style="opacity: .8">
						<g id="&lt;Group&gt;">
							<path id="&lt;Mesh&gt;" class="s12" d="m1117.6 722.9q0-1 0-1 0 0 28.4-2c9.5-0.9 21.3-2.1 35.5-3.6 14.1-2 30.7-3.8 49.4-7.1 4.7-0.8 9.6-1.5 14.5-2.4q7.5-1.4 15.4-2.9c5.2-1.1 10.6-1.9 16.1-3.2q8.3-1.8 17-3.7c2.9-0.7 5.9-1.3 8.8-2q4.5-1.1 9-2.2c6.1-1.5 12.3-3 18.6-4.6q9.5-2.6 19.4-5.4c6.6-1.7 13.2-3.9 20-5.9 27.3-8.4 56.5-18.5 87.3-31.2 15.4-6.4 31.2-13.3 47.2-21.2 16-7.8 32.3-16.4 48.5-26.4q0 0 0.5 0.9c-16.2 10-32.5 18.6-48.6 26.4-16 7.9-31.8 14.8-47.2 21.2-30.8 12.7-60.1 22.9-87.4 31.2-6.8 2.1-13.5 4.2-20.1 6q-9.9 2.7-19.3 5.3c-6.4 1.7-12.6 3.2-18.6 4.7q-4.6 1.1-9 2.2c-3 0.7-6 1.3-8.9 2q-8.7 1.9-17 3.7c-5.5 1.2-10.9 2.1-16.2 3.2q-7.8 1.5-15.3 2.9c-5 0.9-9.8 1.6-14.5 2.4-18.8 3.3-35.3 5.1-49.5 7.1-14.2 1.4-26 2.7-35.5 3.6q-28.5 2-28.5 2zm-19.4 0.9q0-1 0-1 4.8-0.2 9.7-0.4 2.4-0.1 4.8-0.2 2.4-0.1 4.9-0.3 0 0 0 1-2.4 0.2-4.8 0.3-2.4 0.1-4.9 0.2-4.8 0.2-9.7 0.4zm-19.4 0.8q0-1 0-1 9.7-0.4 19.4-0.8 0 0 0 1-9.7 0.4-19.4 0.8zm-19.4 0.2q0-1 0-1c6.5-0.1 12.9 0 19.4-0.2q0 0 0 1c-6.4 0.2-12.9 0.1-19.4 0.2zm-19.4 0.2q0-1 0-1 9.7-0.1 19.4-0.2 0 0 0 1-9.7 0.1-19.4 0.2zm-72.9-3q0.1-1 0.1-1c12.1 0.7 24.2 1.5 36.4 2.1q18.2 0.4 36.4 0.9 0 0 0 1-18.2-0.5-36.5-0.9c-12.1-0.6-24.2-1.4-36.4-2.1zm-36.3-3.1q0.1-1 0.1-1 9.1 0.8 18.1 1.6 4.6 0.4 9.1 0.8 2.3 0.3 4.5 0.5 2.3 0.1 4.6 0.2 0 0-0.1 1-2.3-0.1-4.5-0.2-2.3-0.2-4.6-0.5-4.5-0.4-9.1-0.8-9-0.8-18.1-1.6zm-18.1-2q0.1-1 0.1-1 4.5 0.5 9 1.1c3 0.3 6.1 0.6 9.1 0.9q0 0-0.1 1c-3-0.3-6.1-0.6-9.1-0.9q-4.5-0.6-9-1.1zm-18.1-2.3q0.1-1 0.1-1 9 1.1 18.1 2.3 0 0-0.1 1-9.1-1.2-18.1-2.3zm-36.1-5.4q0.1-0.9 0.1-0.9 9 1.4 18 2.9 2.3 0.3 4.5 0.7 2.3 0.3 4.5 0.6 4.6 0.5 9.1 1.1 0 0-0.1 1-4.6-0.6-9.1-1.2-2.3-0.2-4.5-0.5-2.3-0.4-4.5-0.8-9-1.4-18-2.9zm-18-2.9q0.1-0.9 0.1-0.9 9 1.4 18 2.9 0 0-0.1 0.9-9-1.4-18-2.9zm-17.9-3.4q0.1-1 0.1-1c6 1.1 12 2.4 17.9 3.5q0 0-0.1 0.9c-6-1-12-2.3-17.9-3.4zm-17.9-3.5q0.2-1 0.2-1 8.9 1.7 17.8 3.5 0 0-0.1 1-9-1.8-17.9-3.5zm-17.9-3.9q0.2-1 0.2-1 4.5 1.1 8.9 2.1 4.5 0.9 9 1.8 0 0-0.2 1-4.5-0.9-9-1.8-4.4-1-8.9-2.1zm-17.7-4.1q0.2-1 0.2-1 8.9 2.1 17.7 4.1 0 0-0.2 1-8.8-2-17.7-4.1zm-17.8-4.2q0.3-0.9 0.3-0.9 8.8 2 17.7 4.1 0 0-0.2 1-8.9-2.1-17.8-4.2zm0 0q0.2-0.9 0.2-0.9 0 0 0.1 0 0 0-0.3 0.9 0 0 0 0zm-52.5-15.1q0.3-0.9 0.3-0.9c4.3 1.4 8.7 2.7 13 4q6.6 2 13.1 3.9c8.7 2.5 17.5 4.8 26.3 7.2q0 0-0.2 0.9c-8.8-2.4-17.6-4.6-26.4-7.1q-6.5-2-13.1-3.9c-4.3-1.3-8.7-2.6-13-4.1zm-25.9-8.6q0.3-1 0.3-1c8.6 3.1 17.3 5.8 25.9 8.7q0 0-0.3 0.9c-8.6-2.8-17.3-5.5-25.9-8.6zm-25.7-9.2q0.4-0.9 0.4-0.9c8.5 3.2 17.1 6.2 25.6 9.1q0 0-0.3 1c-8.6-3-17.2-6-25.7-9.2zm-25.5-9.7q0.4-0.9 0.4-0.9 6.3 2.5 12.7 4.9 6.4 2.4 12.8 4.8 0 0-0.4 0.9-6.4-2.4-12.8-4.7-6.3-2.5-12.7-5zm-25.4-10q0.4-0.9 0.4-0.9c8.4 3.4 16.9 6.8 25.4 10q0 0-0.4 0.9c-8.5-3.2-16.9-6.6-25.4-10zm-25.2-10.3q0.4-1 0.4-1c8.4 3.5 16.8 7 25.2 10.4q0 0-0.4 0.9c-8.4-3.4-16.8-6.9-25.2-10.3zm-25.2-10.6q0.4-0.9 0.4-0.9c8.4 3.5 16.8 7.1 25.2 10.5q0 0-0.4 1c-8.4-3.5-16.8-7.1-25.2-10.6zm-25.1-10.7q0.4-0.9 0.4-0.9 12.6 5.3 25.1 10.7 0 0-0.4 0.9-12.5-5.3-25.1-10.7zm-25-10.8q0.4-0.9 0.4-0.9 12.5 5.4 25 10.8 0 0-0.4 0.9-12.5-5.4-25-10.8zm-25-10.8q0.3-0.9 0.3-0.9 12.6 5.4 25.1 10.8 0 0-0.4 0.9-12.5-5.4-25-10.8zm-25.1-10.7q0.4-0.9 0.4-0.9 12.5 5.3 25 10.7 0 0-0.3 0.9-12.6-5.3-25.1-10.7zm-25.1-10.6q0.4-0.9 0.4-0.9 12.5 5.3 25.1 10.6 0 0-0.4 0.9-12.6-5.3-25.1-10.6zm-25.2-10.4q0.4-1 0.4-1 12.6 5.2 25.2 10.5 0 0-0.4 0.9-12.6-5.2-25.2-10.4zm-25.3-10.2q0.3-0.9 0.3-0.9 12.7 5.1 25.4 10.1 0 0-0.4 1-12.7-5.1-25.3-10.2zm-25.5-9.8q0.4-0.9 0.4-0.9c8.5 3.2 17 6.5 25.4 9.8q0 0-0.3 0.9c-8.5-3.2-16.9-6.6-25.5-9.8zm-62.4-21.8q0.3-1 0.3-1 7.8 2.6 15.7 5.2c5.3 1.7 10.5 3.6 15.7 5.4 10.4 3.5 20.7 7.5 31.1 11.3q0 0-0.4 0.9c-10.3-3.8-20.6-7.7-31.1-11.3-5.2-1.8-10.4-3.7-15.6-5.4q-7.9-2.5-15.7-5.1zm-31.7-9.6q0.3-1 0.3-1c5.3 1.5 10.6 3.2 15.9 4.7 5.2 1.6 10.5 3.2 15.8 4.9q0 0-0.3 1c-5.3-1.8-10.5-3.3-15.8-4.9-5.3-1.6-10.6-3.2-15.9-4.7zm-16-4.3q0.3-1 0.3-1 8 2.2 16 4.3 0 0-0.3 1-8-2.2-16-4.3zm-16-4q0.2-1 0.2-1c5.4 1.3 10.8 2.5 16.1 4q0 0-0.3 1c-5.3-1.5-10.6-2.7-16-4zm-32.3-7q0.2-1 0.2-1 8.1 1.6 16.2 3.3c5.4 1.1 10.8 2.5 16.1 3.7q0 0-0.2 1c-5.4-1.3-10.7-2.7-16.1-3.8q-8.1-1.6-16.2-3.2zm-16.3-2.9q0.2-1 0.2-1c5.4 1 10.9 1.7 16.3 2.9q0 0-0.2 1c-5.4-1.2-10.9-2-16.3-2.9zm-16.3-2.5q0.1-1 0.1-1 2 0.3 4.1 0.5 2 0.4 4.1 0.7 4.1 0.7 8.2 1.3 0 0-0.2 1-4.1-0.6-8.2-1.3-2-0.3-4-0.7-2.1-0.2-4.1-0.5zm-16.5-2q0.2-1 0.2-1 8.2 1 16.4 2 0 0-0.1 1-8.2-1-16.5-2zm-16.4-1.3q0.1-1 0.1-1 4.1 0.3 8.2 0.6c2.8 0.2 5.5 0.4 8.3 0.7q0 0-0.2 1c-2.7-0.3-5.4-0.5-8.2-0.7q-4.1-0.3-8.2-0.6zm-16.5-0.9q0-1 0-1c2.8 0.1 5.5 0 8.3 0.2q4.1 0.4 8.3 0.7 0 0-0.1 1-4.1-0.3-8.3-0.7c-2.7-0.2-5.5-0.1-8.2-0.2zm-16.5-0.5q0-1 0-1 8.2 0.2 16.5 0.5 0 0 0 1-8.3-0.3-16.5-0.5zm-11.6 0.3q-0.1-1-0.1-1 5.9-0.1 11.7-0.3 0 0 0 1-5.8 0.2-11.6 0.3zm-5.8 0.2q-0.1-1-0.1-1 2.9-0.1 5.8-0.2 0 0 0.1 1-2.9 0.1-5.8 0.2zm-5.8 0.1q-0.1-1-0.1-1 2.9-0.1 5.8-0.1 0 0 0.1 1-2.9 0-5.8 0.1zm-5.8 0.5q-0.1-1-0.1-1 2.9-0.3 5.8-0.5 0 0 0.1 1-2.9 0.2-5.8 0.5zm-5.8 0.4q-0.1-0.9-0.1-0.9 2.9-0.3 5.8-0.5 0 0 0.1 1-2.9 0.2-5.8 0.4zm-5.8 0.5q-0.1-1-0.1-1 2.9-0.2 5.8-0.4 0 0 0.1 0.9-2.9 0.3-5.8 0.5zm-5.8 0.5q-0.1-1-0.1-1 2.9-0.2 5.8-0.5 0 0 0.1 1-2.9 0.3-5.8 0.5zm-5.7 0.8q-0.1-1-0.1-1 2.8-0.4 5.7-0.8 0 0 0.1 1-2.8 0.4-5.7 0.8zm-5.8 0.8q-0.1-1-0.1-1 2.9-0.4 5.8-0.8 0 0 0.1 1-2.9 0.4-5.8 0.8zm-5.7 0.8q-0.2-1-0.2-1 2.9-0.4 5.8-0.8 0 0 0.1 1-2.8 0.4-5.7 0.8zm-5.7 0.9q-0.2-1-0.2-1 2.9-0.4 5.7-0.9 0 0 0.2 1-2.9 0.4-5.7 0.9zm-5.7 1.1q-0.2-1-0.2-1 2.8-0.6 5.7-1.1 0 0 0.2 1-2.9 0.5-5.7 1.1zm-5.7 1.2q-0.2-1-0.2-1 2.8-0.6 5.7-1.2 0 0 0.2 1-2.9 0.6-5.7 1.2zm-5.7 1.1q-0.2-0.9-0.2-0.9 2.8-0.6 5.7-1.2 0 0 0.2 1-2.9 0.6-5.7 1.1zm-5.7 1.2q-0.2-1-0.2-1 5.7-1.1 5.7-1.1 0 0 0.2 0.9 0 0-5.7 1.2zm1122 238.6q0 0-0.1-1 0 0 28.4-2c9.5-0.9 21.3-2.1 35.5-3.6 14.1-1.9 30.6-3.8 49.4-7.1 4.6-0.8 9.5-1.5 14.5-2.4q7.4-1.4 15.3-2.9c5.2-1 10.6-1.9 16.1-3.2q8.3-1.8 17-3.7c2.9-0.6 5.8-1.2 8.8-2q4.4-1 9-2.2c6-1.5 12.2-3 18.6-4.6q9.4-2.6 19.3-5.3c6.6-1.8 13.2-4 20-6 27.3-8.3 56.5-18.5 87.2-31.1 15.4-6.4 31.2-13.3 47.1-21.2 16-7.8 32.4-16.4 48.5-26.3q0.5 0.8 0.5 0.8c-16.2 10-32.5 18.6-48.5 26.4-16 7.9-31.8 14.8-47.2 21.2-30.8 12.7-60 22.8-87.3 31.2-6.8 2-13.4 4.2-20 5.9q-9.9 2.8-19.4 5.4c-6.3 1.6-12.5 3.1-18.6 4.6q-4.5 1.1-9 2.2c-2.9 0.7-5.9 1.3-8.8 2q-8.7 1.9-17 3.7c-5.5 1.3-10.9 2.1-16.1 3.2q-7.9 1.5-15.4 2.9c-4.9 0.9-9.8 1.6-14.5 2.4-18.7 3.3-35.3 5.1-49.4 7.1-14.2 1.5-26 2.7-35.5 3.6q-28.4 2-28.4 2zm-19.4 0.9q0 0-0.1-1 4.9-0.2 9.7-0.4 2.4-0.1 4.9-0.2 2.4-0.1 4.8-0.3 0.1 1 0.1 1-2.5 0.2-4.9 0.3-2.4 0.1-4.8 0.2-4.9 0.2-9.7 0.4zm-19.4 0.8q0 0 0-1 9.7-0.4 19.3-0.8 0.1 1 0.1 1-9.7 0.4-19.4 0.8zm-19.4 0.2q0 0 0-1c6.5-0.1 12.9 0 19.4-0.2q0 1 0 1c-6.5 0.2-12.9 0.1-19.4 0.2zm-19.4 0.2q0 0 0-1 9.7-0.1 19.4-0.2 0 1 0 1-9.7 0.1-19.4 0.2zm-72.8-3q0 0 0.1-1c12.1 0.7 24.2 1.5 36.3 2.1q18.2 0.4 36.4 0.9 0 1 0 1-18.2-0.5-36.4-0.9c-12.2-0.6-24.3-1.4-36.4-2.1zm-36.3-3.1q0 0 0.1-1 9 0.8 18.1 1.6 4.5 0.4 9.1 0.9 2.2 0.2 4.5 0.4 2.3 0.1 4.6 0.2-0.1 1-0.1 1-2.3-0.1-4.6-0.2-2.2-0.2-4.5-0.5-4.5-0.4-9.1-0.8-9-0.8-18.1-1.6zm-18.1-2q0 0 0.1-1 4.5 0.5 9 1.1c3 0.3 6.1 0.6 9.1 0.9q-0.1 1-0.1 1c-3-0.3-6.1-0.6-9.1-0.9q-4.5-0.6-9-1.1zm-18.1-2.3q0 0 0.1-1 9 1.1 18.1 2.3-0.1 1-0.1 1-9.1-1.2-18.1-2.3zm-36.1-5.3q0 0 0.2-1 9 1.4 18 2.9 2.2 0.3 4.5 0.7 2.2 0.3 4.5 0.6 4.5 0.5 9 1.1-0.1 1-0.1 1-4.5-0.6-9.1-1.1-2.2-0.3-4.5-0.6-2.2-0.4-4.5-0.7-9-1.5-18-2.9zm-18-2.9q0 0 0.2-1 9 1.4 18 2.9-0.2 1-0.2 1-9-1.5-18-2.9zm-17.9-3.5q0 0 0.2-1c6 1.2 11.9 2.4 17.9 3.5q-0.2 1-0.2 1c-5.9-1.1-11.9-2.4-17.9-3.5zm-17.8-3.5q0 0 0.2-1 8.9 1.8 17.8 3.5-0.2 1-0.2 1-8.9-1.8-17.8-3.5zm-17.9-3.9q0 0 0.3-0.9 4.4 1 8.8 2 4.5 0.9 9 1.8-0.2 1-0.2 1-4.5-0.9-9-1.8-4.4-1-8.9-2.1zm-17.7-4.1q0 0 0.2-1 8.9 2.1 17.8 4.2-0.3 0.9-0.3 0.9-8.8-2-17.7-4.1zm-17.7-4.1q0 0 0.2-1 8.9 2.1 17.7 4.1-0.2 1-0.2 1-8.9-2.1-17.7-4.1zm-0.1 0q0 0 0.3-1 0 0 0 0-0.2 1-0.2 1-0.1 0-0.1 0zm-52.4-15.1q0 0 0.3-1c4.3 1.5 8.7 2.8 13 4q6.5 2 13.1 3.9c8.7 2.6 17.5 4.8 26.3 7.2q-0.3 1-0.3 1c-8.8-2.4-17.6-4.7-26.3-7.2q-6.5-1.9-13.1-3.9c-4.3-1.3-8.7-2.6-13-4zm-25.9-8.7q0 0 0.4-0.9c8.5 3.1 17.2 5.8 25.8 8.6q-0.3 1-0.3 1c-8.6-2.9-17.3-5.6-25.9-8.7zm-25.6-9.1q0 0 0.3-1c8.5 3.2 17.1 6.2 25.7 9.2q-0.4 0.9-0.4 0.9c-8.5-2.9-17.1-5.9-25.6-9.1zm-25.5-9.7q0 0 0.3-0.9 6.4 2.4 12.7 4.9 6.4 2.4 12.8 4.7-0.3 1-0.3 1-6.4-2.4-12.8-4.8-6.4-2.4-12.7-4.9zm-25.4-10q0 0 0.4-1c8.4 3.5 16.8 6.8 25.3 10.1q-0.3 0.9-0.3 0.9c-8.5-3.2-17-6.6-25.4-10zm-25.2-10.4q0 0 0.4-0.9c8.3 3.5 16.7 7 25.2 10.3q-0.4 1-0.4 1c-8.4-3.4-16.8-6.9-25.2-10.4zm-25.2-10.5q0 0 0.4-0.9c8.4 3.5 16.7 7.1 25.2 10.5q-0.4 0.9-0.4 0.9c-8.4-3.4-16.8-7-25.2-10.5zm-25.1-10.7q0 0 0.4-0.9 12.6 5.3 25.1 10.7-0.4 0.9-0.4 0.9-12.5-5.4-25.1-10.7zm-25-10.8q0 0 0.4-0.9 12.5 5.4 25 10.8-0.4 0.9-0.4 0.9-12.5-5.4-25-10.8zm-25.1-10.8q0 0 0.4-0.9 12.6 5.4 25.1 10.8-0.4 0.9-0.4 0.9-12.5-5.4-25.1-10.8zm-25-10.7q0 0 0.4-1 12.5 5.4 25 10.8-0.4 0.9-0.4 0.9-12.5-5.4-25-10.7zm-25.1-10.6q0 0 0.3-1 12.6 5.3 25.2 10.6-0.4 1-0.4 1-12.6-5.3-25.1-10.6zm-25.2-10.5q0 0 0.3-0.9 12.6 5.2 25.2 10.4-0.3 1-0.3 1-12.6-5.3-25.2-10.5zm-25.4-10.1q0 0 0.4-0.9 12.7 5 25.3 10.1-0.3 0.9-0.3 0.9-12.7-5-25.4-10.1zm-25.4-9.8q0 0 0.4-1c8.5 3.2 16.9 6.6 25.4 9.9q-0.4 0.9-0.4 0.9c-8.4-3.3-16.9-6.6-25.4-9.8zm-62.5-21.9q0 0 0.3-0.9 7.9 2.5 15.7 5.1c5.3 1.8 10.5 3.6 15.7 5.4 10.5 3.6 20.8 7.5 31.2 11.3q-0.4 1-0.4 1c-10.4-3.8-20.7-7.8-31.1-11.3-5.2-1.8-10.4-3.7-15.7-5.4q-7.9-2.6-15.7-5.2zm-31.7-9.6q0 0 0.3-0.9c5.3 1.5 10.5 3.1 15.8 4.7 5.3 1.6 10.6 3.1 15.9 4.9q-0.3 0.9-0.3 0.9c-5.3-1.7-10.6-3.3-15.8-4.9-5.3-1.5-10.6-3.2-15.9-4.7zm-16-4.3q0 0 0.2-1 8.1 2.2 16.1 4.4-0.3 0.9-0.3 0.9-8-2.1-16-4.3zm-16.1-4q0 0 0.3-1c5.3 1.3 10.7 2.5 16 4q-0.2 1-0.2 1c-5.3-1.5-10.7-2.7-16.1-4zm-32.3-7q0 0 0.2-1 8.1 1.6 16.2 3.3c5.4 1.1 10.8 2.5 16.2 3.7q-0.3 1-0.3 1c-5.3-1.2-10.7-2.6-16.1-3.7q-8.1-1.7-16.2-3.3zm-16.3-2.9q0 0 0.1-1c5.5 1 11 1.7 16.4 2.9q-0.2 1-0.2 1c-5.4-1.2-10.9-1.9-16.3-2.9zm-16.4-2.5q0 0 0.1-1 2.1 0.3 4.1 0.5 2.1 0.4 4.1 0.7 4.1 0.7 8.2 1.3-0.1 1-0.1 1-4.1-0.6-8.2-1.3-2.1-0.3-4.1-0.7-2.1-0.2-4.1-0.5zm-16.4-2q0 0 0.1-0.9 8.2 1 16.4 1.9-0.1 1-0.1 1-8.2-1-16.4-2zm-16.5-1.3q0 0 0-1 4.2 0.3 8.3 0.6c2.8 0.2 5.5 0.4 8.3 0.8q-0.1 0.9-0.1 0.9c-2.8-0.3-5.5-0.5-8.3-0.7q-4.1-0.3-8.2-0.6zm-16.6-0.9q0 0 0.1-1c2.7 0.1 5.5 0 8.2 0.2q4.2 0.4 8.3 0.7 0 1 0 1-4.2-0.3-8.3-0.7c-2.8-0.2-5.5-0.1-8.3-0.2zm-16.5-0.5q0 0 0-1 8.3 0.2 16.6 0.5-0.1 1-0.1 1-8.3-0.3-16.5-0.5zm-11.7 0.3q0 0 0-1 5.8-0.1 11.7-0.3 0 1 0 1-5.8 0.2-11.7 0.3zm-5.8 0.2q0 0 0-1 2.9-0.1 5.8-0.2 0 1 0 1-2.9 0.1-5.8 0.2zm-5.8 0.1q0 0 0-1 2.9-0.1 5.8-0.1 0 1 0 1-2.9 0-5.8 0.1zm-5.8 0.5q0 0-0.1-1 2.9-0.3 5.9-0.5 0 1 0 1-2.9 0.2-5.8 0.5zm-5.8 0.5q0 0-0.1-1 2.9-0.3 5.8-0.5 0.1 1 0.1 1-2.9 0.2-5.8 0.5zm-5.8 0.4q0 0-0.1-1 2.9-0.2 5.8-0.4 0.1 1 0.1 1-2.9 0.2-5.8 0.4zm-5.8 0.5q0 0-0.1-1 2.9-0.2 5.8-0.5 0.1 1 0.1 1-2.9 0.3-5.8 0.5zm-5.7 0.8q0 0-0.2-1 2.9-0.4 5.8-0.8 0.1 1 0.1 1-2.9 0.4-5.7 0.8zm-5.8 0.8q0 0-0.1-1 2.8-0.4 5.7-0.8 0.2 1 0.2 1-2.9 0.4-5.8 0.8zm-5.8 0.8q0 0-0.1-0.9 2.9-0.5 5.8-0.9 0.1 1 0.1 1-2.9 0.4-5.8 0.8zm-5.7 0.9q0 0-0.2-1 2.9-0.4 5.8-0.8 0.1 0.9 0.1 0.9-2.8 0.5-5.7 0.9zm-5.7 1.1q0 0-0.2-1 2.9-0.5 5.7-1.1 0.2 1 0.2 1-2.9 0.5-5.7 1.1zm-5.7 1.2q0 0-0.2-1 2.8-0.6 5.7-1.2 0.2 1 0.2 1-2.9 0.6-5.7 1.2zm-5.7 1.2q0 0-0.2-1 2.8-0.6 5.7-1.2 0.2 1 0.2 1-2.9 0.6-5.7 1.2zm-5.7 1.1q0 0-0.2-0.9 5.7-1.2 5.7-1.2 0.2 1 0.2 1 0 0-5.7 1.1z"/>
						</g>
					</g>
				</g>
				<path id="&lt;Path&gt;" class="s13" d="m133.4 511.4c225.2 30.5 364.4 242 675.3 319 397.1 98.4 721.4-29.5 721.4-29.5l-2 287.9h-1586.3v-538.7c0 0 41.8-58.9 191.6-38.7z"/>
				<path id="&lt;Compound Path&gt;" class="s14" d="m1614.6 773.5c0 0-221.6 93.9-516.6 93.9-295.1 0-479.8-96-656.5-212.3-176.7-116.3-255.3-147.7-380.6-147.7-125.4 0-224 124-224 124v-86.6c188.4-92.5 289.7-80 426.1-37.6 136.4 42.4 350.3 168.7 661.4 220.2 311.1 51.6 620.9-96 620.9-96z"/>
				<path id="&lt;Path&gt;" class="s15" d="m1614.6 773.5c0 0-221.6 93.9-516.6 93.9-295.1 0-479.8-96-656.5-212.3-176.7-116.3-255.3-147.7-380.6-147.7-125.4 0-224 124-224 124v-86.6c188.4-92.5 289.7-80 426.1-37.6 136.4 42.4 350.3 168.7 661.4 220.2 311.1 51.6 620.9-96 620.9-96z"/>
				<path id="&lt;Path&gt;" class="s16" d="m1312.4-90.5c0 0 15.6 493.6-495.4 580.8-260.7 44.4-379.2-109.1-833.2-83v-497.8z"/>
				<path id="&lt;Path&gt;" class="s17" d="m1195.1-155.7c0 0 99.5 516.4-398.2 630.7 203.1-51.1 427.5-267.1 203.1-644.9z"/>
				<path id="&lt;Path&gt;" class="s18" d="m-383-148.1h1229.6c0 0 187.8 280.9 52.2 476.5-111.3 160.5-375.1 69.3-711.1 69.3-336 0-570.7 104.7-570.7 104.7z"/>
				<g id="&lt;Group&gt;">
					<path id="&lt;Path&gt;" class="s19" d="m957.3-200.6c0 0 158.2 172.7 108.7 404.6-55.7 260.7-367.5 271-367.5 271"/>
					<path id="&lt;Path&gt;" class="s20" d="m941.7-200.6c0 0 159.3 177.7 108.8 409.4-54.8 252.6-355.6 260.2-355.6 260.2"/>
					<path id="&lt;Path&gt;" class="s21" d="m926.1-200.6c0 0 160.4 182.7 108.9 414.2-53.9 244.5-343.6 249.5-343.6 249.5"/>
					<path id="&lt;Path&gt;" class="s22" d="m910.5-200.6c0 0 161.4 187.8 109 419-53 236.3-331.7 238.7-331.7 238.7"/>
					<path id="&lt;Path&gt;" class="s23" d="m894.9-200.6c0 0 162.5 192.8 109.1 423.9-52.1 228.1-319.7 227.9-319.7 227.9"/>
					<path id="&lt;Path&gt;" class="s24" d="m879.3-200.6c0 0 163.5 197.9 109.2 428.7-51.2 220-307.8 217.2-307.8 217.2"/>
					<path id="&lt;Path&gt;" class="s25" d="m863.7-200.6c0 0 164.6 202.9 109.3 433.5-50.3 211.9-295.8 206.4-295.8 206.4"/>
					<path id="&lt;Path&gt;" class="s26" d="m848-200.6c0 0 165.8 208 109.6 438.3-49.5 203.7-284 195.7-284 195.7"/>
					<path id="&lt;Path&gt;" class="s27" d="m832.4-200.6c0 0 166.8 213 109.7 443.2-48.6 195.5-272 184.8-272 184.8"/>
				</g>
				<g id="&lt;Group&gt;" style="opacity: .2">
					<g id="&lt;Group&gt;">
						<path id="&lt;Mesh&gt;" class="s28" d="m1173.7 152.1q-0.4-0.1-0.9-0.3 0 0 2.5-7.7c1.5-5.2 3.9-13 6.7-23.5 2.7-10.5 5.9-23.7 9-39.7 1.5-8 3.1-16.7 4.4-26.1 1.4-9.4 2.6-19.5 3.4-30.3q0.5 0 1 0.1c-0.8 10.8-2 21-3.4 30.4-1.3 9.4-2.9 18.1-4.4 26.1-3.1 16-6.3 29.2-9.1 39.7-2.7 10.6-5.2 18.4-6.7 23.6q-2.5 7.7-2.5 7.7zm-9.5 27.2q-0.4-0.2-0.9-0.4c1.8-4.4 3.3-8.9 4.9-13.5q1.2-3.3 2.4-6.7 1.1-3.4 2.2-6.9 0.5 0.2 0.9 0.3-1.1 3.5-2.2 6.9-1.1 3.4-2.3 6.8c-1.6 4.5-3.2 9-5 13.5zm-5.2 13.4q-0.5-0.2-1-0.4c1.9-4.4 3.5-8.9 5.3-13.4q0.5 0.2 0.9 0.4c-1.7 4.5-3.3 9-5.2 13.4zm-5.6 13.2q-0.5-0.2-0.9-0.4 2.8-6.6 5.5-13.2 0.5 0.2 1 0.4-2.8 6.6-5.6 13.2zm-6 13.1q-0.5-0.2-1-0.4 3.1-6.5 6.1-13.1 0.4 0.2 0.9 0.4-3 6.6-6 13.1zm-6.4 12.9q-0.5-0.2-0.9-0.4c2.1-4.3 4.4-8.6 6.3-12.9q0.5 0.2 1 0.4c-2 4.4-4.3 8.6-6.4 12.9zm-6.8 12.7q-0.4-0.2-0.9-0.5 1.8-3.1 3.5-6.2c1.2-2.1 2.2-4.3 3.3-6.4q0.4 0.2 0.9 0.4c-1.1 2.1-2.2 4.3-3.3 6.4q-1.7 3.2-3.5 6.3zm-7.1 12.5q-0.4-0.2-0.8-0.5c2.5-4 4.7-8.3 7-12.5q0.5 0.3 0.9 0.5c-2.3 4.2-4.5 8.5-7.1 12.5zm-7.4 12.4q-0.4-0.3-0.9-0.6 3.8-6.1 7.5-12.3 0.4 0.3 0.8 0.5-3.7 6.2-7.4 12.4zm-8 12q-0.4-0.3-0.8-0.6 4-6 7.9-12 0.5 0.3 0.9 0.6-4 6-8 12zm-8.3 11.7q-0.4-0.3-0.8-0.6c2.8-3.9 5.7-7.6 8.3-11.7q0.4 0.3 0.8 0.6c-2.5 4-5.5 7.8-8.3 11.7zm-8.7 11.5q-0.3-0.3-0.7-0.6c3-3.7 5.8-7.6 8.6-11.5q0.4 0.3 0.8 0.6c-2.8 3.9-5.6 7.8-8.7 11.5zm-9 11.2q-0.4-0.3-0.7-0.6 4.5-5.6 9-11.2 0.4 0.3 0.7 0.6-4.5 5.6-9 11.2zm-9.5 10.8q-0.4-0.3-0.8-0.7 4.8-5.4 9.6-10.7 0.3 0.3 0.7 0.6-4.7 5.4-9.5 10.8zm-9.9 10.4q-0.4-0.3-0.7-0.7c3.3-3.4 6.7-6.7 9.8-10.4q0.4 0.4 0.8 0.7c-3.1 3.7-6.6 7-9.9 10.4zm-10.2 10.2q-0.4-0.4-0.7-0.8 1.3-1.2 2.6-2.4 1.3-1.3 2.5-2.5 2.6-2.6 5.1-5.2 0.3 0.4 0.7 0.7-2.5 2.6-5.1 5.2-1.2 1.3-2.5 2.5-1.3 1.3-2.6 2.5zm-9.5 8.6q-0.3-0.4-0.7-0.8 4.8-4.3 9.5-8.6 0.3 0.4 0.7 0.8-4.8 4.3-9.5 8.6zm-4.8 4.2q-0.3-0.4-0.7-0.8c1.7-1.3 3.3-2.7 4.8-4.2q0.4 0.4 0.7 0.8c-1.6 1.4-3.1 2.9-4.8 4.2zm-5 4q-0.3-0.3-0.6-0.7 2.5-2 4.9-4.1 0.4 0.4 0.7 0.8-2.5 2-5 4zm-4.9 4.1q-0.3-0.4-0.7-0.8 2.5-2 5-4 0.3 0.4 0.6 0.7-2.5 2.1-4.9 4.1zm-5 4q-0.3-0.4-0.6-0.8c1.7-1.3 3.3-2.7 4.9-4q0.4 0.4 0.7 0.8c-1.7 1.3-3.3 2.7-5 4zm-5.2 3.7q-0.3-0.4-0.6-0.8 2.6-1.8 5.2-3.7 0.3 0.4 0.6 0.8-2.6 1.9-5.2 3.7zm-5.2 3.8q-0.3-0.4-0.6-0.8 2.6-1.9 5.2-3.8 0.3 0.4 0.6 0.8-2.6 1.9-5.2 3.8zm-5.2 3.7q-0.3-0.4-0.6-0.8 2.6-1.9 5.2-3.7 0.3 0.4 0.6 0.8-2.6 1.9-5.2 3.7zm-5.4 3.5q-0.2-0.4-0.5-0.8c1.8-1.2 3.6-2.3 5.3-3.5q0.3 0.4 0.6 0.8c-1.7 1.3-3.6 2.3-5.4 3.5zm-5.4 3.4q-0.2-0.4-0.5-0.8 2.7-1.7 5.4-3.4 0.3 0.4 0.5 0.8-2.7 1.7-5.4 3.4zm-5.4 3.5q-0.2-0.4-0.5-0.9 2.7-1.7 5.4-3.4 0.3 0.4 0.5 0.8-2.7 1.8-5.4 3.5zm-5.4 3.3q-0.3-0.5-0.6-0.9c1-0.5 1.9-1 2.8-1.6q1.4-0.8 2.7-1.7 0.3 0.5 0.5 0.9-1.3 0.8-2.7 1.7c-0.9 0.5-1.8 1-2.7 1.6zm-5.6 3.1q-0.3-0.5-0.5-0.9 2.8-1.6 5.5-3.1 0.3 0.4 0.6 0.9-2.8 1.5-5.6 3.1zm-5.6 3.1q-0.3-0.5-0.5-0.9 2.8-1.6 5.6-3.1 0.2 0.4 0.5 0.9-2.8 1.5-5.6 3.1zm-5.6 3.1q-0.3-0.5-0.5-0.9 5.6-3.1 5.6-3.1 0.2 0.4 0.5 0.9 0 0-5.6 3.1z"/>
					</g>
				</g>
				<g id="&lt;Group&gt;">
					<path id="&lt;Path&gt;" class="s29" d="m-222.4 740.3c0 0 115.6-245.4 352-200.3 214.8 41.1 384.6 365.7 804.2 452.8 399.5 82.9 680.8 7.2 680.8 7.2"/>
					<path id="&lt;Path&gt;" class="s30" d="m-222.9 747.7c0 0 116.5-236 347.3-188.7 210.1 43.3 381.2 362.4 793.3 448 393 81.6 682.5 8.7 694.1 0.9"/>
					<path id="&lt;Path&gt;" class="s30" d="m-223.4 755.1c0 0 117.5-226.5 342.6-177.2 205.5 45.6 377.7 359.3 782.4 443.3 386.5 80.3 684.1 10.1 707.3-5.5"/>
					<path id="&lt;Path&gt;" class="s31" d="m-223.8 762.4c0 0 118.3-217 337.7-165.6 200.9 47.9 374.4 356.1 771.6 438.6 380 79 685.7 11.6 720.5-11.8"/>
					<path id="&lt;Path&gt;" class="s32" d="m-224.3 769.8c0 0 119.4-208.1 333-154 196.4 49.6 371 352.8 760.7 433.9 373.5 77.6 687.3 12.9 733.7-18.2"/>
					<path id="&lt;Path&gt;" class="s33" d="m-224.8 777.2c0 0 120.4-198.7 328.3-142.5 191.7 51.8 367.5 349.7 749.8 429.2 367.1 76.3 689 14.4 747-24.6"/>
					<path id="&lt;Path&gt;" class="s33" d="m1597.4 1047.2c-69.6 46.7-399.6 105.9-760.2 30.9-374.8-78-551.8-370.4-738.9-424.5-202.2-58.3-323.6 130.9-323.6 130.9"/>
					<path id="&lt;Path&gt;" class="s34" d="m1594.5 1055.1c-81.2 54.5-419.3 110.9-773.3 37.2-367.4-76.4-545.6-363.5-728.1-419.7-196.5-60.6-318.8 119.3-318.8 119.3"/>
					<path id="&lt;Path&gt;" class="s35" d="m1591.6 1062.9c-92.8 62.3-439 116-786.5 43.7-360-75-539.3-356.6-717.3-415.1-190.7-62.7-314 107.8-314 107.8"/>
					<path id="&lt;Path&gt;" class="s35" d="m1588.7 1070.8c-104.3 70.1-458.7 121-799.7 50-352.5-73.4-533.1-349.7-706.4-410.4-185.1-64.8-309.3 96.2-309.3 96.2"/>
					<path id="&lt;Path&gt;" class="s36" d="m1585.9 1078.7c-116 77.9-478.4 126-813 56.3-345-71.9-526.8-342.7-695.5-405.6-179.4-66.9-304.6 84.6-304.6 84.6"/>
					<path id="&lt;Path&gt;" class="s37" d="m1583 1086.5c-127.6 85.7-498.1 131.1-826.2 62.7-337.6-70.3-520.5-335.7-684.6-400.9-173.7-69-299.9 73-299.9 73"/>
					<path id="&lt;Path&gt;" class="s38" d="m1580.1 1094.4c-139.2 93.5-517.8 136.1-839.4 69-330.1-68.8-514.3-328.7-673.7-396.2-168-71-295.1 61.5-295.1 61.5"/>
					<path id="&lt;Path&gt;" class="s38" d="m1577.2 1102.3c-150.7 101.2-537.5 141.1-852.5 75.4-322.8-67.3-508.1-321.7-663-391.5-162.3-73.2-290.3 49.9-290.3 49.9"/>
					<path id="&lt;Path&gt;" class="s39" d="m1574.3 1110.1c-162.3 109.1-557.2 146.2-865.7 81.8-315.3-65.8-501.9-314.7-652.1-386.8-156.6-75.2-285.6 38.3-285.6 38.3"/>
					<path id="&lt;Path&gt;" class="s40" d="m1571.5 1118c-174 116.8-576.9 151.2-879 88.1-307.8-64.2-495.6-307.6-641.2-382-151-77.2-280.9 26.7-280.9 26.7"/>
					<path id="&lt;Path&gt;" class="s40" d="m1568.6 1125.9c-185.6 124.6-596.6 156.2-892.2 94.4-300.4-62.7-489.4-300.5-630.3-377.3-145.3-79.2-276.2 15.2-276.2 15.2"/>
					<path id="&lt;Path&gt;" class="s41" d="m1565.7 1133.8c-197.1 132.4-616.3 161.2-905.4 100.8-292.9-61.3-483.2-293.5-619.4-372.7-139.7-81.1-271.4 3.6-271.4 3.6"/>
					<path id="&lt;Path&gt;" class="s42" d="m1562.8 1141.6c-208.7 140.2-636 166.3-918.6 107.2-285.4-59.7-477-286.4-608.6-367.9-134-83.2-266.6-8-266.6-8"/>
					<path id="&lt;Path&gt;" class="s43" d="m1560 1149.5c-220.4 148-655.8 171.3-931.9 113.5-278-58.2-470.8-279.2-597.7-363.2-128.4-85.1-261.9-19.5-261.9-19.5"/>
					<path id="&lt;Path&gt;" class="s43" d="m1557.1 1157.4c-232 155.7-675.4 176.3-945 119.8-270.6-56.6-464.9-271.9-586.9-358.5-123-86.8-257.2-31.1-257.2-31.1"/>
					<path id="&lt;Path&gt;" class="s44" d="m1554.2 1165.2c-243.6 163.6-695.1 181.4-958.2 126.2-263.1-55.1-458.7-264.8-576-353.7-117.4-88.9-252.5-42.7-252.5-42.7"/>
				</g>
				<g id="&lt;Group&gt;">
					<path id="&lt;Path&gt;" class="s45" d="m796.9-160.4c0 0 240.8 327 68.4 506.1-171 177.5-816.6-45.1-995.2-45.1"/>
					<g id="&lt;Group&gt;" style="opacity: .7">
						<path id="&lt;Path&gt;" class="s46" d="m779.5-155.1c16.8 4.7 241.1 326.4 66.1 497.8-171 167.5-788-40.4-970.4-45.5"/>
					</g>
					<g id="&lt;Group&gt;" style="opacity: .6">
						<path id="&lt;Path&gt;" class="s47" d="m762.1-149.8c33.6 9.4 241.6 325.9 63.7 489.6-170.9 157.4-759.4-35.9-945.5-45.9"/>
					</g>
					<g id="&lt;Group&gt;" style="opacity: .6">
						<path id="&lt;Path&gt;" class="s47" d="m744.7-144.5c50.4 14.1 242.1 325.3 61.3 481.4-170.7 147.4-730.8-31.4-920.6-46.4"/>
					</g>
					<g id="&lt;Group&gt;" style="opacity: .5">
						<path id="&lt;Path&gt;" class="s47" d="m727.3-139.2c67.2 18.7 242.8 324.9 59 473.2-170.4 137.4-702.2-26.9-895.8-46.9"/>
					</g>
					<g id="&lt;Group&gt;" style="opacity: .5">
						<path id="&lt;Path&gt;" class="s48" d="m709.9-134c84 23.5 243.6 324.6 56.6 465.1-169.9 127.6-673.6-22.3-870.8-47.4"/>
					</g>
					<g id="&lt;Group&gt;" style="opacity: .4">
						<path id="&lt;Path&gt;" class="s48" d="m692.5-128.7c100.8 28.2 244.5 324.3 54.3 456.8-169.3 118-645.1-17.7-846-47.8"/>
					</g>
					<g id="&lt;Group&gt;" style="opacity: .4">
						<path id="&lt;Path&gt;" class="s48" d="m675.1-123.4c117.6 32.9 245.5 324.1 51.9 448.6-168.6 108.4-616.4-13.2-821.1-48.3"/>
					</g>
					<g id="&lt;Group&gt;" style="opacity: .4">
						<path id="&lt;Path&gt;" class="s49" d="m657.7-118.1c134.4 37.6 246.7 324.1 49.6 440.4-167.8 98.9-587.9-8.7-796.3-48.8"/>
					</g>
					<g id="&lt;Group&gt;" style="opacity: .3">
						<path id="&lt;Path&gt;" class="s49" d="m640.3-112.8c151.2 42.3 248 324.3 47.2 432.2-166.9 89.6-559.3-4.2-771.4-49.2"/>
					</g>
					<g id="&lt;Group&gt;" style="opacity: .3">
						<path id="&lt;Path&gt;" class="s50" d="m622.9-107.5c168 47 249.3 324.7 44.9 423.9-166 80.6-530.7 0.5-746.5-49.6"/>
					</g>
					<g id="&lt;Group&gt;" style="opacity: .2">
						<path id="&lt;Path&gt;" class="s50" d="m605.5-102.2c184.8 51.7 250.7 325.3 42.5 415.7-164.9 71.6-502.1 5-721.6-50.1"/>
					</g>
					<g id="&lt;Group&gt;" style="opacity: .2">
						<path id="&lt;Path&gt;" class="s50" d="m588.1-96.9c201.7 56.4 252.2 326.2 40.1 407.5-163.8 62.8-473.5 9.5-696.7-50.6"/>
					</g>
					<g id="&lt;Group&gt;" style="opacity: .1">
						<path id="&lt;Path&gt;" class="s51" d="m570.7-91.6c218.5 61.1 253.7 327.4 37.8 399.3-162.9 54.2-444.9 14-671.9-51.1"/>
					</g>
					<g id="&lt;Group&gt;" style="opacity: .1">
						<g id="&lt;Group&gt;">
							<path id="&lt;Mesh&gt;" class="s52" d="m742.5 125.8q-0.2 0-0.5 0 0 0-0.1-4.7c0-1.6-0.1-3.6-0.2-6-0.2-2.4-0.3-5.1-0.7-8.3-0.6-6.3-1.8-14.2-4.1-23.4-2.2-9.3-5.5-20-10.6-31.6-4.9-11.7-11.9-24.3-21-37.3-4.7-6.4-9.8-13-15.6-19.5-5.9-6.5-12.3-13-19.4-19.4-28.4-25.4-68-48-117.1-61.7q0.1-0.2 0.2-0.5c49.1 13.8 88.8 36.4 117.2 61.9 7.2 6.3 13.6 12.8 19.5 19.3 5.8 6.5 10.9 13.2 15.6 19.6 9.1 13.1 16.1 25.7 21.1 37.4 5.1 11.7 8.4 22.4 10.6 31.6 2.2 9.3 3.5 17.2 4.1 23.6 0.4 3.1 0.5 5.9 0.7 8.3 0.1 2.4 0.2 4.4 0.2 6q0.1 4.7 0.1 4.7zm-153.7 179.2q0-0.3-0.1-0.5c10.2-3 20.2-6.4 30-10.3 9.8-4 19.3-8.7 28.5-13.9 18.4-10.4 35.2-23.6 49.5-39.2 14.2-15.6 25.8-33.7 33.5-53.4 7.8-19.6 11.8-40.7 11.8-61.9q0.3 0 0.5 0c0 21.2-4 42.4-11.8 62.1-7.8 19.8-19.3 37.9-33.6 53.6-14.3 15.6-31.3 28.8-49.7 39.2-9.2 5.3-18.7 9.9-28.5 13.9-9.8 4-19.9 7.4-30.1 10.4zm0 0q-0.1-0.3-0.1-0.5 0 0 0 0 0.1 0.2 0.1 0.5 0 0 0 0zm-175.4 22.5q0-0.3 0-0.5c29.6-0.5 59.1-2.3 88.4-5.7 29.3-3.4 58.4-9 86.9-16.8q0 0.2 0.1 0.5c-28.5 7.8-57.6 13.4-86.9 16.8-29.4 3.4-58.9 5.2-88.5 5.7zm-209.8-15.1q0-0.2 0.1-0.4c69.4 10 139.5 15.9 209.7 15q0 0.2 0 0.5c-70.2 0.9-140.4-5-209.8-15.1zm-33.2-5.2q0.1-0.2 0.1-0.5c11 1.9 22.1 3.6 33.2 5.3q-0.1 0.2-0.1 0.4c-11.1-1.6-22.1-3.3-33.2-5.2zm-16.5-2.8q0-0.3 0-0.5 8.3 1.5 16.6 2.8 0 0.3-0.1 0.5-8.3-1.3-16.5-2.8zm-16.6-3q0.1-0.2 0.1-0.5 8.3 1.5 16.5 3 0 0.2 0 0.5-8.3-1.5-16.6-3zm-16.5-3.2q0.1-0.2 0.1-0.5 8.3 1.6 16.5 3.2 0 0.3-0.1 0.5-8.2-1.6-16.5-3.2zm-16.4-3.3q0-0.3 0.1-0.5c5.5 1.1 10.9 2.3 16.4 3.3q0 0.3-0.1 0.5c-5.5-1-10.9-2.2-16.4-3.3zm-16.5-3.5q0.1-0.2 0.2-0.5 8.2 1.8 16.4 3.5-0.1 0.2-0.1 0.5-8.3-1.7-16.5-3.5zm-16.4-3.6q0.1-0.2 0.2-0.5 8.2 1.8 16.4 3.6-0.1 0.3-0.2 0.5-8.2-1.8-16.4-3.6zm-16.3-3.8q0-0.2 0.1-0.5 8.2 1.9 16.4 3.8-0.1 0.3-0.2 0.5-8.1-1.9-16.3-3.8zm-16.3-3.9q0-0.3 0.1-0.5c5.4 1.3 10.8 2.7 16.3 3.9q-0.1 0.3-0.1 0.5c-5.5-1.2-10.9-2.6-16.3-3.9zm-16.3-4.1q0-0.2 0.1-0.5c5.4 1.5 10.8 2.8 16.3 4.1q-0.1 0.2-0.1 0.5c-5.5-1.3-10.9-2.7-16.3-4.1zm-16.3-4.2q0.1-0.2 0.1-0.5 8.2 2.1 16.3 4.2-0.1 0.3-0.1 0.5-8.2-2.1-16.3-4.2zm-16.2-4.4q0.1-0.2 0.1-0.5 8.1 2.2 16.2 4.4 0 0.3-0.1 0.5-8.1-2.2-16.2-4.4zm-16.2-4.5q0.1-0.2 0.2-0.5c5.3 1.5 10.7 3.1 16.1 4.5q0 0.3-0.1 0.5c-5.4-1.4-10.8-3-16.2-4.5zm-16.1-4.7q0.1-0.2 0.1-0.4c5.4 1.6 10.8 3.1 16.2 4.6q-0.1 0.3-0.2 0.5c-5.4-1.5-10.8-3-16.1-4.7zm-16.1-4.7q0.1-0.3 0.1-0.5 16.1 4.8 16.1 4.8 0 0.2-0.1 0.4 0 0-16.1-4.7z"/>
						</g>
					</g>
				</g>
				<path id="&lt;Path&gt;" class="s53" d="m1625.3 867.4c0 0-436.8 124.5-749.9 49.8-313.1-74.6-536-379.5-763.6-393.8-227.5-14.2-301 177.8-301 177.8l-1.2-13.6 27.3-56.2c0 0 60.7-111.9 218.1-123.9 158.8-12.1 320.8 103.2 350.8 123.8 109.3 75.3 267.3 191.4 566.8 228.3 301.6 37.2 597.9-65.3 652.7-90.8z"/>
				<path id="&lt;Path&gt;" class="s54" d="m1500 1000h-1500v-1000h1500z"/>
				<path id="&lt;Path&gt;" class="s55" d="m1500 1000h-1500v-1000h1500z"/>
				<path id="&lt;Path&gt;" class="s56" d="m1500 1000h-1500v-1000h1500z"/>
				<path id="&lt;Path&gt;" class="s57" d="m1530.1 800.9c0 0-108.9 59.1-444.3 66.2-335.5 7.2-597.4-183.7-597.4-183.7"/>
				<path id="&lt;Path&gt;" class="s58" d="m1151.4 323c0 0-53.8 77.3-215.6 137.3-161.7 60-295.5 32-295.5 32"/>
			</g>
			<path id="&lt;Path&gt;" class="s59" d="m1500 1000h-1500v-1000h1500z"/>
		</g>
	</g>
	<g id="OBJECTS">
	</g>
</svg>